<!-- Generated by IcoMoon.io -->
<svg version="1.1" xmlns="http://www.w3.org/2000/svg" width="32" height="32" viewBox="0 0 32 32"><title>fb</title>
<rect fill="#fff" x="0" y="0" width="32" height="32"></rect>
<path d="M31.5 16.343c0 7.75-5.688 14.188-13.125 15.312v-10.812h3.625l0.688-4.5h-4.313v-2.875c0-1.25 0.625-2.438 2.562-2.438h1.937v-3.813c0 0-1.75-0.313-3.5-0.313-3.5 0-5.812 2.188-5.812 6.063v3.375h-3.938v4.5h3.938v10.812c-7.438-1.125-13.063-7.562-13.063-15.312 0-8.563 6.938-15.5 15.5-15.5s15.5 6.938 15.5 15.5z"></path>
</svg>
