<!-- Generated by IcoMoon.io -->
<svg version="1.1" xmlns="http://www.w3.org/2000/svg" width="32" height="32" viewBox="0 0 32 32"><title>in</title>
<rect fill="#fff" x="0" y="0" width="32" height="32"></rect>
<path d="M7.25 32h-6.563v-21.099h6.563v21.099zM3.933 8.079c-2.046 0-3.74-1.764-3.74-3.881 0-2.046 1.694-3.74 3.74-3.74 2.117 0 3.81 1.694 3.81 3.74 0 2.117-1.694 3.881-3.81 3.881zM31.736 32h-6.492v-10.232c0-2.47-0.071-5.575-3.458-5.575s-3.881 2.611-3.881 5.363v10.444h-6.562v-21.099h6.28v2.893h0.070c0.917-1.623 3.034-3.387 6.21-3.387 6.633 0 7.903 4.375 7.903 10.020v11.573h-0.071z"></path>
</svg>
