<!-- Generated by IcoMoon.io -->
<svg version="1.1" xmlns="http://www.w3.org/2000/svg" width="37" height="32" viewBox="0 0 37 32"><title>tw</title>
<rect fill="#fff" x="0" y="0" width="37" height="32"></rect>
<path d="M33.469 8.283c0 0.365 0 0.656 0 1.021 0 10.135-7.656 21.729-21.729 21.729-4.375 0-8.385-1.24-11.74-3.427 0.583 0.073 1.167 0.146 1.823 0.146 3.573 0 6.854-1.24 9.479-3.281-3.354-0.073-6.198-2.26-7.146-5.323 0.51 0.073 0.948 0.146 1.458 0.146 0.656 0 1.385-0.146 1.969-0.292-3.5-0.729-6.125-3.792-6.125-7.511v-0.073c1.021 0.583 2.26 0.875 3.5 0.948-2.115-1.386-3.427-3.719-3.427-6.344 0-1.458 0.365-2.771 1.021-3.865 3.792 4.594 9.479 7.656 15.823 8.021-0.146-0.583-0.219-1.167-0.219-1.75 0-4.229 3.427-7.656 7.656-7.656 2.188 0 4.156 0.875 5.615 2.406 1.677-0.365 3.354-1.021 4.812-1.896-0.583 1.823-1.75 3.281-3.354 4.229 1.531-0.146 3.063-0.583 4.375-1.167-1.021 1.531-2.333 2.844-3.792 3.938z"></path>
</svg>
