<!-- Generated by IcoMoon.io -->
<svg version="1.1" xmlns="http://www.w3.org/2000/svg" width="45" height="32" viewBox="0 0 45 32"><title>youtub</title>
<rect fill="#fff" x="0" y="0" width="45" height="32"></rect>
<path d="M43.664 5.831c0.972 3.403 0.972 10.695 0.972 10.695s0 7.211-0.972 10.694c-0.486 1.944-2.025 3.403-3.889 3.889-3.484 0.891-17.257 0.891-17.257 0.891s-13.854 0-17.338-0.891c-1.863-0.486-3.403-1.944-3.889-3.889-0.972-3.484-0.972-10.694-0.972-10.694s0-7.292 0.972-10.694c0.486-1.944 2.025-3.484 3.889-3.97 3.484-0.972 17.338-0.972 17.338-0.972s13.773 0 17.257 0.972c1.863 0.486 3.403 2.025 3.889 3.97zM17.982 23.088l11.505-6.563-11.505-6.563v13.125z"></path>
</svg>
