<svg width="31" height="31" viewBox="0 0 31 31" fill="none" xmlns="http://www.w3.org/2000/svg">
<path d="M7.02344 31H0.666016V10.5605H7.02344V31ZM3.81055 7.82617C1.82812 7.82617 0.1875 6.11719 0.1875 4.06641C0.1875 2.08398 1.82812 0.443359 3.81055 0.443359C5.86133 0.443359 7.50195 2.08398 7.50195 4.06641C7.50195 6.11719 5.86133 7.82617 3.81055 7.82617ZM30.7441 31H24.4551V21.0879C24.4551 18.6953 24.3867 15.6875 21.1055 15.6875C17.8242 15.6875 17.3457 18.2168 17.3457 20.8828V31H10.9883V10.5605H17.0723V13.3633H17.1406C18.0293 11.791 20.0801 10.082 23.1562 10.082C29.582 10.082 30.8125 14.3203 30.8125 19.7891V31H30.7441Z" fill="white"/>
</svg>
