<svg width="35" height="30" viewBox="0 0 35 30" fill="none" xmlns="http://www.w3.org/2000/svg">
<path d="M31.377 7.76562C31.377 8.10742 31.377 8.38086 31.377 8.72266C31.377 18.2246 24.1992 29.0938 11.0059 29.0938C6.9043 29.0938 3.14453 27.9316 0 25.8809C0.546875 25.9492 1.09375 26.0176 1.70898 26.0176C5.05859 26.0176 8.13477 24.8555 10.5957 22.9414C7.45117 22.873 4.78516 20.8223 3.89648 17.9512C4.375 18.0195 4.78516 18.0879 5.26367 18.0879C5.87891 18.0879 6.5625 17.9512 7.10938 17.8145C3.82812 17.1309 1.36719 14.2598 1.36719 10.7734V10.7051C2.32422 11.252 3.48633 11.5254 4.64844 11.5938C2.66602 10.2949 1.43555 8.10742 1.43555 5.64648C1.43555 4.2793 1.77734 3.04883 2.39258 2.02344C5.94727 6.33008 11.2793 9.20117 17.2266 9.54297C17.0898 8.99609 17.0215 8.44922 17.0215 7.90234C17.0215 3.9375 20.2344 0.724609 24.1992 0.724609C26.25 0.724609 28.0957 1.54492 29.4629 2.98047C31.0352 2.63867 32.6074 2.02344 33.9746 1.20312C33.4277 2.91211 32.334 4.2793 30.8301 5.16797C32.2656 5.03125 33.7012 4.62109 34.9316 4.07422C33.9746 5.50977 32.7441 6.74023 31.377 7.76562Z" fill="white"/>
</svg>
