<svg width="38" height="27" viewBox="0 0 38 27" fill="none" xmlns="http://www.w3.org/2000/svg">
<path d="M36.8418 4.91992C37.6621 7.79102 37.6621 13.9434 37.6621 13.9434C37.6621 13.9434 37.6621 20.0273 36.8418 22.9668C36.4316 24.6074 35.1328 25.8379 33.5605 26.248C30.6211 27 19 27 19 27C19 27 7.31055 27 4.37109 26.248C2.79883 25.8379 1.5 24.6074 1.08984 22.9668C0.269531 20.0273 0.269531 13.9434 0.269531 13.9434C0.269531 13.9434 0.269531 7.79102 1.08984 4.91992C1.5 3.2793 2.79883 1.98047 4.37109 1.57031C7.31055 0.75 19 0.75 19 0.75C19 0.75 30.6211 0.75 33.5605 1.57031C35.1328 1.98047 36.4316 3.2793 36.8418 4.91992ZM15.1719 19.4805L24.8789 13.9434L15.1719 8.40625V19.4805Z" fill="white"/>
</svg>
